{"title":"Cowboys And Aliens 2011 BRRip 720p x264 AAC - PRiSTiNE [P2PDL]","uid":8258439,"size":798136744,"categoryP":"video","categoryS":"hd___movies","magnet":"?xt=urn:btih:3458d561f89245fdcbbd06f2f9ce0070df3755ab&amp;dn=Cowboys+And+Aliens+2011+BRRip+720p+x264+AAC+-+PRiSTiNE+%5BP2PDL%5D&amp;tr=udp%3A%2F%2Ftracker.openbittorrent.com%3A80&amp;tr=udp%3A%2F%2Fopen.demonii.com%3A1337&amp;tr=udp%3A%2F%2Ftracker.coppersurfer.tk%3A6969&amp;tr=udp%3A%2F%2Fexodus.desync.com%3A6969","seeders":4,"leechers":0,"uploader":"ValidusVyto","files":-1,"time":1363313993,"description":"_________________________  Visit us at _________________________\n  &lt;a href=&quot;\nhttp://p2pdl.com&quot; rel=&quot;nofollow&quot; target=&quot;_NEW&quot;&gt;\nhttp://p2pdl.com&lt;/a&gt;  ____________________________ &lt;a href=&quot; http://p2pdl.com&quot; rel=&quot;nofollow&quot; target=&quot;_NEW&quot;&gt; http://p2pdl.com&lt;/a&gt;\n\n\nCowboys And Aliens 2011 BRRip 720p x264 AAC - PRiSTiNE\n\n\nGenre: Action | Sci-Fi | Thriller\nPlot: A spaceship arrives in Arizona, 1873, to take over the Earth, starting with the Wild West region.\nA posse of cowboys and natives are all that stand in their way. \nDirector: Jon Favreau\nStars: Daniel Craig, Harrison Ford, Olivia Wilde.\nRated: PG-13 for intense sequences of western and sci-fi action and violence, some partial nudity and\na brief crude reference.\n\n\nInfo: &lt;a href=&quot;\nhttp://www.imdb.com/title/tt0409847/&quot; rel=&quot;nofollow&quot; target=&quot;_NEW&quot;&gt;\nhttp://www.imdb.com/title/tt0409847/&lt;/a&gt;\n\nTrailer:\n\n\nFormat                         : MPEG-4\nFile size                      : 752 MiB\nDuration                       : 2h 15mn\nOverall bit rate               : 778 Kbps\nVideo Format                   : AVC\nBit rate                       : 699 Kbps\nWidth                          : 1 280 pixels\nHeight                         : 528 pixels\nDisplay aspect ratio           : 2.40:1\nFrame rate mode                : Constant\nFrame rate                     : 23.976 fps\nStream size                    : 676 MiB (90%)\nWriting library                : x264 core 129 r2245 \nAudio Format                   : AAC\nAudio Bit rate mode            : Variable\nBit rate                       : 75.9 Kbps\nChannel(s)                     : 2 channels\nChannel positions              : Front: L R\nSampling rate                  : 48.0 KHz\nStream size                    : 73.4 MiB (10%)\nLanguage                       : English\nSubtitle                       : Yes(English)\nSource                         : Extended.720p.BluRay.x264-CROSSBOW(Thanks)\n\nScreenshots:\n &lt;a href=&quot;\nhttp://cdn.piczend.com/images/eMaIOLNx/1363310058_1.jpg&quot; rel=&quot;nofollow&quot; target=&quot;_NEW&quot;&gt;\nhttp://cdn.piczend.com/images/eMaIOLNx/1363310058_1.jpg&lt;/a&gt; &lt;a href=&quot;\nhttp://cdn.piczend.com/images/ofnBXIzf/1363310059_2.jpg&quot; rel=&quot;nofollow&quot; target=&quot;_NEW&quot;&gt;\nhttp://cdn.piczend.com/images/ofnBXIzf/1363310059_2.jpg&lt;/a&gt; &lt;a href=&quot;\nhttp://cdn.piczend.com/images/0sblWL8F/1363310057_3.jpg&quot; rel=&quot;nofollow&quot; target=&quot;_NEW&quot;&gt;\nhttp://cdn.piczend.com/images/0sblWL8F/1363310057_3.jpg&lt;/a&gt; &lt;a href=&quot;\nhttp://cdn.piczend.com/images/TvZGeYic/1363310059_4.jpg&quot; rel=&quot;nofollow&quot; target=&quot;_NEW&quot;&gt;\nhttp://cdn.piczend.com/images/TvZGeYic/1363310059_4.jpg&lt;/a&gt; &lt;a href=&quot;\nhttp://cdn.piczend.com/images/MINK4yo5/1363310059_5.jpg&quot; rel=&quot;nofollow&quot; target=&quot;_NEW&quot;&gt;\nhttp://cdn.piczend.com/images/MINK4yo5/1363310059_5.jpg&lt;/a&gt; &lt;a href=&quot;\nhttp://cdn.piczend.com/images/MGUoljri/1363310059_6.jpg&quot; rel=&quot;nofollow&quot; target=&quot;_NEW&quot;&gt;\nhttp://cdn.piczend.com/images/MGUoljri/1363310059_6.jpg&lt;/a&gt;\n\n\n----------------------------------------------------------------------------------------------------\n\n\nEncoded using revolutionary 10bit encoding, which enables us to provide you more crispier \nand sharper images at small sizes, just make sure you follow our instructions without a fault.\nRecommend to you to use latest version of VLC player. Install K-Lite Codec Pack or shark007 codecs\nin case of any kind of problem in playback (For non-VLC Media Player users). Alternatively, install\nCore AVC codecs, the fastest decoder that there is coupled with Community Center Codec Pack and play\non Windows Media Player Classic.\n\nEncoder Notes: Encoder Notes: Looking For Early Access To Anything You Can Provide DVDScr, R5, DVDR, BluRay, Direct\nAudio, Music Releases and Seedboxes. We require dedicated servers, so as to do more and fast releases of movies.\nIf You Got anything to offer contact us at &quot;&lt;a class=&quot;__cf_email__&quot; href=&quot;/cdn-cgi/l/email-protection&quot; data-cfemail=&quot;daaaa8bd9ab2afa9b2f4b9b5b7&quot;&gt;[email&amp;#160;protected]&lt;/a&gt;&lt;script cf-hash='f9e31' type=&quot;text/javascript&quot;&gt;\n/* &lt;![CDATA[ */!function(){try{var t=&quot;currentScript&quot;in document?document.currentScript:function(){for(var t=document.getElementsByTagName(&quot;script&quot;),e=t.length;e--;)if(t[e].getAttribute(&quot;cf-hash&quot;))return t[e]}();if(t&amp;&amp;t.previousSibling){var e,r,n,i,c=t.previousSibling,a=c.getAttribute(&quot;data-cfemail&quot;);if(a){for(e=&quot;&quot;,r=parseInt(a.substr(0,2),16),n=2;a.length-n;n+=2)i=parseInt(a.substr(n,2),16)^r,e+=String.fromCharCode(i);e=document.createTextNode(e),c.parentNode.replaceChild(e,c)}}}catch(u){}}();/* ]]&gt; */&lt;/script&gt;&quot;.","torrent":{"xt":"urn:btih:3458d561f89245fdcbbd06f2f9ce0070df3755ab","amp;dn":"Cowboys+And+Aliens+2011+BRRip+720p+x264+AAC+-+PRiSTiNE+%5BP2PDL%5D","amp;tr":["udp%3A%2F%2Ftracker.openbittorrent.com%3A80","udp%3A%2F%2Fopen.demonii.com%3A1337","udp%3A%2F%2Ftracker.coppersurfer.tk%3A6969","udp%3A%2F%2Fexodus.desync.com%3A6969"],"infoHash":"3458d561f89245fdcbbd06f2f9ce0070df3755ab","infoHashBuffer":{"type":"Buffer","data":[52,88,213,97,248,146,69,253,203,189,6,242,249,206,0,112,223,55,85,171]},"announce":[],"urlList":[]}}